<svg xmlns="http://www.w3.org/2000/svg" width="210" height="213" viewBox="0 0 210 213">
  <g id="Group_12" data-name="Group 12" transform="translate(-1108 -1112)">
    <circle id="Ellipse_1" data-name="Ellipse 1" cx="5" cy="5" r="5" transform="translate(1108 1112)" fill="#d2ad77"/>
    <circle id="Ellipse_61" data-name="Ellipse 61" cx="5" cy="5" r="5" transform="translate(1108 1228)" fill="#d2ad77"/>
    <circle id="Ellipse_25" data-name="Ellipse 25" cx="5" cy="5" r="5" transform="translate(1108 1170)" fill="#d2ad77"/>
    <circle id="Ellipse_62" data-name="Ellipse 62" cx="5" cy="5" r="5" transform="translate(1108 1286)" fill="#d2ad77"/>
    <circle id="Ellipse_16" data-name="Ellipse 16" cx="5" cy="5" r="5" transform="translate(1108 1141)" fill="#d2ad77"/>
    <circle id="Ellipse_63" data-name="Ellipse 63" cx="5" cy="5" r="5" transform="translate(1108 1257)" fill="#d2ad77"/>
    <circle id="Ellipse_17" data-name="Ellipse 17" cx="5" cy="5" r="5" transform="translate(1108 1199)" fill="#d2ad77"/>
    <circle id="Ellipse_64" data-name="Ellipse 64" cx="5" cy="5" r="5" transform="translate(1108 1315)" fill="#d2ad77"/>
    <ellipse id="Ellipse_8" data-name="Ellipse 8" cx="5.5" cy="5" rx="5.5" ry="5" transform="translate(1222 1112)" fill="#d2ad77"/>
    <ellipse id="Ellipse_45" data-name="Ellipse 45" cx="5.5" cy="5" rx="5.5" ry="5" transform="translate(1222 1228)" fill="#d2ad77"/>
    <ellipse id="Ellipse_26" data-name="Ellipse 26" cx="5.5" cy="5" rx="5.5" ry="5" transform="translate(1222 1170)" fill="#d2ad77"/>
    <ellipse id="Ellipse_46" data-name="Ellipse 46" cx="5.5" cy="5" rx="5.5" ry="5" transform="translate(1222 1286)" fill="#d2ad77"/>
    <ellipse id="Ellipse_12" data-name="Ellipse 12" cx="5.5" cy="5" rx="5.5" ry="5" transform="translate(1222 1141)" fill="#d2ad77"/>
    <ellipse id="Ellipse_47" data-name="Ellipse 47" cx="5.5" cy="5" rx="5.5" ry="5" transform="translate(1222 1257)" fill="#d2ad77"/>
    <ellipse id="Ellipse_18" data-name="Ellipse 18" cx="5.5" cy="5" rx="5.5" ry="5" transform="translate(1222 1199)" fill="#d2ad77"/>
    <ellipse id="Ellipse_48" data-name="Ellipse 48" cx="5.5" cy="5" rx="5.5" ry="5" transform="translate(1222 1315)" fill="#d2ad77"/>
    <circle id="Ellipse_2" data-name="Ellipse 2" cx="5" cy="5" r="5" transform="translate(1137 1112)" fill="#d2ad77"/>
    <circle id="Ellipse_57" data-name="Ellipse 57" cx="5" cy="5" r="5" transform="translate(1137 1228)" fill="#d2ad77"/>
    <circle id="Ellipse_27" data-name="Ellipse 27" cx="5" cy="5" r="5" transform="translate(1137 1170)" fill="#d2ad77"/>
    <circle id="Ellipse_58" data-name="Ellipse 58" cx="5" cy="5" r="5" transform="translate(1137 1286)" fill="#d2ad77"/>
    <circle id="Ellipse_15" data-name="Ellipse 15" cx="5" cy="5" r="5" transform="translate(1137 1141)" fill="#d2ad77"/>
    <circle id="Ellipse_59" data-name="Ellipse 59" cx="5" cy="5" r="5" transform="translate(1137 1257)" fill="#d2ad77"/>
    <circle id="Ellipse_19" data-name="Ellipse 19" cx="5" cy="5" r="5" transform="translate(1137 1199)" fill="#d2ad77"/>
    <circle id="Ellipse_60" data-name="Ellipse 60" cx="5" cy="5" r="5" transform="translate(1137 1315)" fill="#d2ad77"/>
    <ellipse id="Ellipse_7" data-name="Ellipse 7" cx="5.5" cy="5" rx="5.5" ry="5" transform="translate(1251 1112)" fill="#d2ad77"/>
    <ellipse id="Ellipse_41" data-name="Ellipse 41" cx="5.5" cy="5" rx="5.5" ry="5" transform="translate(1251 1228)" fill="#d2ad77"/>
    <ellipse id="Ellipse_28" data-name="Ellipse 28" cx="5.5" cy="5" rx="5.5" ry="5" transform="translate(1251 1170)" fill="#d2ad77"/>
    <ellipse id="Ellipse_42" data-name="Ellipse 42" cx="5.5" cy="5" rx="5.5" ry="5" transform="translate(1251 1286)" fill="#d2ad77"/>
    <ellipse id="Ellipse_11" data-name="Ellipse 11" cx="5.5" cy="5" rx="5.5" ry="5" transform="translate(1251 1141)" fill="#d2ad77"/>
    <ellipse id="Ellipse_43" data-name="Ellipse 43" cx="5.5" cy="5" rx="5.5" ry="5" transform="translate(1251 1257)" fill="#d2ad77"/>
    <ellipse id="Ellipse_20" data-name="Ellipse 20" cx="5.5" cy="5" rx="5.5" ry="5" transform="translate(1251 1199)" fill="#d2ad77"/>
    <ellipse id="Ellipse_44" data-name="Ellipse 44" cx="5.5" cy="5" rx="5.5" ry="5" transform="translate(1251 1315)" fill="#d2ad77"/>
    <ellipse id="Ellipse_3" data-name="Ellipse 3" cx="5.5" cy="5" rx="5.5" ry="5" transform="translate(1165 1112)" fill="#d2ad77"/>
    <ellipse id="Ellipse_53" data-name="Ellipse 53" cx="5.5" cy="5" rx="5.5" ry="5" transform="translate(1165 1228)" fill="#d2ad77"/>
    <ellipse id="Ellipse_29" data-name="Ellipse 29" cx="5.5" cy="5" rx="5.5" ry="5" transform="translate(1165 1170)" fill="#d2ad77"/>
    <ellipse id="Ellipse_54" data-name="Ellipse 54" cx="5.5" cy="5" rx="5.5" ry="5" transform="translate(1165 1286)" fill="#d2ad77"/>
    <ellipse id="Ellipse_14" data-name="Ellipse 14" cx="5.5" cy="5" rx="5.5" ry="5" transform="translate(1165 1141)" fill="#d2ad77"/>
    <ellipse id="Ellipse_55" data-name="Ellipse 55" cx="5.5" cy="5" rx="5.5" ry="5" transform="translate(1165 1257)" fill="#d2ad77"/>
    <ellipse id="Ellipse_21" data-name="Ellipse 21" cx="5.5" cy="5" rx="5.5" ry="5" transform="translate(1165 1199)" fill="#d2ad77"/>
    <ellipse id="Ellipse_56" data-name="Ellipse 56" cx="5.5" cy="5" rx="5.5" ry="5" transform="translate(1165 1315)" fill="#d2ad77"/>
    <circle id="Ellipse_6" data-name="Ellipse 6" cx="5" cy="5" r="5" transform="translate(1280 1112)" fill="#d2ad77"/>
    <circle id="Ellipse_36" data-name="Ellipse 36" cx="5" cy="5" r="5" transform="translate(1280 1228)" fill="#d2ad77"/>
    <circle id="Ellipse_30" data-name="Ellipse 30" cx="5" cy="5" r="5" transform="translate(1280 1170)" fill="#d2ad77"/>
    <circle id="Ellipse_37" data-name="Ellipse 37" cx="5" cy="5" r="5" transform="translate(1280 1286)" fill="#d2ad77"/>
    <circle id="Ellipse_10" data-name="Ellipse 10" cx="5" cy="5" r="5" transform="translate(1280 1141)" fill="#d2ad77"/>
    <circle id="Ellipse_38" data-name="Ellipse 38" cx="5" cy="5" r="5" transform="translate(1280 1257)" fill="#d2ad77"/>
    <circle id="Ellipse_22" data-name="Ellipse 22" cx="5" cy="5" r="5" transform="translate(1280 1199)" fill="#d2ad77"/>
    <circle id="Ellipse_39" data-name="Ellipse 39" cx="5" cy="5" r="5" transform="translate(1280 1315)" fill="#d2ad77"/>
    <ellipse id="Ellipse_4" data-name="Ellipse 4" cx="5.5" cy="5" rx="5.5" ry="5" transform="translate(1193 1112)" fill="#d2ad77"/>
    <ellipse id="Ellipse_49" data-name="Ellipse 49" cx="5.5" cy="5" rx="5.5" ry="5" transform="translate(1193 1228)" fill="#d2ad77"/>
    <ellipse id="Ellipse_31" data-name="Ellipse 31" cx="5.5" cy="5" rx="5.5" ry="5" transform="translate(1193 1170)" fill="#d2ad77"/>
    <ellipse id="Ellipse_50" data-name="Ellipse 50" cx="5.5" cy="5" rx="5.5" ry="5" transform="translate(1193 1286)" fill="#d2ad77"/>
    <ellipse id="Ellipse_13" data-name="Ellipse 13" cx="5.5" cy="5" rx="5.5" ry="5" transform="translate(1193 1141)" fill="#d2ad77"/>
    <ellipse id="Ellipse_51" data-name="Ellipse 51" cx="5.5" cy="5" rx="5.5" ry="5" transform="translate(1193 1257)" fill="#d2ad77"/>
    <ellipse id="Ellipse_23" data-name="Ellipse 23" cx="5.5" cy="5" rx="5.5" ry="5" transform="translate(1193 1199)" fill="#d2ad77"/>
    <ellipse id="Ellipse_52" data-name="Ellipse 52" cx="5.5" cy="5" rx="5.5" ry="5" transform="translate(1193 1315)" fill="#d2ad77"/>
    <circle id="Ellipse_5" data-name="Ellipse 5" cx="5" cy="5" r="5" transform="translate(1308 1112)" fill="#d2ad77"/>
    <circle id="Ellipse_33" data-name="Ellipse 33" cx="5" cy="5" r="5" transform="translate(1308 1228)" fill="#d2ad77"/>
    <circle id="Ellipse_32" data-name="Ellipse 32" cx="5" cy="5" r="5" transform="translate(1308 1170)" fill="#d2ad77"/>
    <circle id="Ellipse_34" data-name="Ellipse 34" cx="5" cy="5" r="5" transform="translate(1308 1286)" fill="#d2ad77"/>
    <circle id="Ellipse_9" data-name="Ellipse 9" cx="5" cy="5" r="5" transform="translate(1308 1141)" fill="#d2ad77"/>
    <circle id="Ellipse_35" data-name="Ellipse 35" cx="5" cy="5" r="5" transform="translate(1308 1257)" fill="#d2ad77"/>
    <circle id="Ellipse_24" data-name="Ellipse 24" cx="5" cy="5" r="5" transform="translate(1308 1199)" fill="#d2ad77"/>
    <circle id="Ellipse_40" data-name="Ellipse 40" cx="5" cy="5" r="5" transform="translate(1308 1315)" fill="#d2ad77"/>
  </g>
</svg>
