<svg xmlns="http://www.w3.org/2000/svg" width="176.687" height="151.365" viewBox="0 0 176.687 151.365">
  <g id="Group_17" data-name="Group 17" transform="translate(-764.379 -2690.328)">
    <path id="Path_19" data-name="Path 19" d="M103.826,12.385a20.463,20.463,0,0,1,3.252,2.02c2.014,1.9,3.629,1.125,5.447-.345,2.594-2.1,5.369-3.973,8.007-6.019a2.287,2.287,0,0,1,3.415.09c8.5,7.507,17.056,14.953,25.589,22.423a1.524,1.524,0,0,1,.479.616c1.342,4.354,4.874,5.495,8.82,6.374,5.254,1.172,10.417,2.75,15.649,4.029,1.571.384,2.206,1.08,2.2,2.712-.032,22.959,0,45.919-.092,68.878a4.579,4.579,0,0,1-1.643,2.957,8.784,8.784,0,0,1-10.009,1.319c-3.43-1.606-6.344-.7-9.421,1.194-6.134,3.779-12.435,7.288-18.706,10.841-1.476.836-2.316,1.848-2.055,3.6a7.149,7.149,0,0,1,.007,1.063c0,5.543-.668,6.853-5.827,8.381a9.1,9.1,0,0,1-5.843-.86c-3.617-1.7-6.483-.73-9.592,1.256-4.513,2.883-9.237,5.439-13.912,8.062a3.213,3.213,0,0,1-2.179.318c-12.961-3.482-25.9-7.052-38.854-10.549q-23.908-6.454-47.838-12.825c-3.377-.9-6.773-1.736-10.723-2.744L19.4,113.9c-4.134-6.176-8.126-12.15-12.127-18.117C5.072,92.5,2.8,89.253.693,85.906A2.625,2.625,0,0,1,.744,83.62C7.9,71.914,14.93,60.129,22.476,48.681c1.634-2.479,5.113-3.782,7.822-5.5,2.074-1.315,4.325-2.351,6.393-3.674a5.816,5.816,0,0,0,2.043-2.294c2.581-5.5,5-11.083,7.6-16.573a6.691,6.691,0,0,1,2.5-2.849C59.3,11.853,69.836,6.028,80.657,0q3.565,5.434,7.153,10.905c1.685,2.574,3.349,5.162,5.044,7.73.884,1.339,5.082,3.189,6.328,2.613a3.8,3.8,0,0,0,1.364-1.812c1.08-2.2,2.078-4.449,3.279-7.051m63.886,42.388a64.13,64.13,0,0,1-6.7,3.865c-1.957.833-2.228,2.116-2.218,3.956.056,10.638.025,21.277.023,31.916v3.327c-4.275-5.777-4.283-5.777-4.291-11.608-.01-6.827,0-13.653-.012-20.48,0-.916-.121-1.832-.221-3.241-2.869,1.666-5.185,3.248-7.7,4.392-1.793.816-2.208,1.931-2.2,3.715.054,10.727.024,21.455.022,32.183,0,.834,0,1.669,0,2.839-4.213-4.284-4.332-4.558-4.334-9.746,0-7.359.008-14.717-.016-22.076a29.109,29.109,0,0,0-.323-2.931c-3.173,1.795-5.892,3.409-8.685,4.883a3.449,3.449,0,0,0-1.96,3.578c.086,10.284.046,20.568.047,30.852q0,2.047,0,4.094c-2.219-2.376-4.836-4.184-4.635-7.893.273-5.039.07-10.1.071-15.157,0-2.16,0-4.321,0-6.77-.618.364-.9.436-1.022.617-5.642,8.39-11.295,16.774-16.846,25.224a2.789,2.789,0,0,0,.112,2.469c1.757,2.735,3.68,5.367,5.591,8,2.5,3.452,5.048,6.871,7.485,10.181a5.037,5.037,0,0,0,.89-.228c15.376-8.92,30.642-18.038,46.192-26.643,4.111-2.275,6.06-4.581,5.487-9.329-.32-2.651-.168-5.224-2.286-7.263C168,85.4,167.6,82.763,167.657,79.8c.158-8.142.054-16.288.054-25.024M122.644,12.625l-.695.2c0,1.1.006,2.2,0,3.3-.057,9.308-.195,18.616-.118,27.922.019,2.3-.828,3.182-2.9,3.924-5.054,1.807-10.024,3.867-14.934,6.038a4.168,4.168,0,0,0-1.792,2.744c-.806,4.017-1.379,8.081-2.124,12.65l-3.815-4.39C95.02,74.7,93.845,83.858,92.67,93.019l.7.543a14.123,14.123,0,0,1,.856-1.589q10.448-14.72,20.952-29.4a7.332,7.332,0,0,1,2.442-1.918C127.178,55.4,136.77,50.2,146.328,44.93c.585-.322,1.463-1.282,1.34-1.551-2.266-4.963-2.76-10.816-7.43-14.592-2.242-1.813-4.243-3.923-6.371-5.88q-5.6-5.152-11.223-10.281m46.194,34.2q-.06-.463-.119-.926c-1.922-.136-4.243-1.042-5.7-.286C151.38,51.643,139.874,57.936,128.4,64.284c-2.953,1.635-6.141,2.881-8.268,5.926C112.689,80.873,104.975,91.35,97.512,102a3.55,3.55,0,0,1-4.426,1.648q-19.046-5.181-38.1-10.334C41.005,89.55,27.005,85.849,13.031,82.054c-4.141-1.125-5.711-.175-6.613,4.568,1.131.357,2.285.77,3.467,1.086,9.47,2.528,18.949,5.024,28.418,7.557,8.446,2.26,16.878,4.576,25.326,6.829,10.748,2.865,21.529,5.611,32.242,8.6,2.064.576,3.206.308,4.366-1.444,6.552-9.893,13.12-19.776,19.814-29.573,2.1-3.078,4.069-6.72,7.042-8.646C135.5,65.586,144.406,60.9,153.109,55.9q7.874-4.523,15.729-9.078M80.952,4.709a7.189,7.189,0,0,0-1.017,1.367c-.922,2.476-1.874,4.945-2.657,7.466-1.745,5.616-3.823,11.176-4.957,16.919-.989,5-.61,10.258-1.325,15.332-.529,3.752.319,6.514,3.522,8.528.193.121.3.386.484.64-2.48,3.99-4.969,7.92-7.374,11.9a14.589,14.589,0,0,0-2.147,4.412c-.542,2.767-.462,5.652-.929,8.44a16.121,16.121,0,0,1-1.726,4.865c-1.129,2.1-2.566,4.041-3.872,6.049a136.764,136.764,0,0,0,14.78-5.237,2.382,2.382,0,0,0,1.231-1.525c.637-3.479,1.3-6.966,1.654-10.48.721-7.191,1.8-14.172,8-19.039a8.6,8.6,0,0,0,.722-.779c2.485-2.525,4.684-5.069,4.547-9.057-.06-1.728,1.112-3.48,1.6-5.254a5.173,5.173,0,0,0,.266-2.761c-3.5-10.5-7.107-20.969-10.8-31.787M46.468,47.452l-.5-.673A25.346,25.346,0,0,0,41.7,49.336c-1.9,1.7-3.36,3.923-5.331,5.524-2.5,2.034-2.859,3.81-1.28,6.786,4.543,8.562,8.695,17.332,13.2,26.416L59.094,70.7,42.087,53.048l4.381-5.6m72.9-2.041c-2.442-6.219-4.664-12.047-7.076-17.8a3.024,3.024,0,0,0-4.991-.092q-3.522,8.231-6.666,16.622c-1.006,2.678-1.671,5.484-2.49,8.232l.449.484c5.784-5.3,13.386-5.407,20.775-7.451M59.99,38.049c4.918-8.03,7.059-16.8,7.691-26.586l-12.64,11.07a8.551,8.551,0,0,0,1.723.351c2.725-.314,3.434.94,3.283,3.534-.225,3.866-.058,7.754-.058,11.632M90.73,76.512l-.719.567c.27,2.035.218,3.8-2.466,3.605-.211-.015-.659.6-.65.92.01.35.381.948.658.986a6.605,6.605,0,0,0,3.082.061c2.186-.849,2.009-2.914,1.743-4.736-.078-.536-1.073-.939-1.648-1.4m-8.395-.779c1.864.207,1.985.214,2.071-1.337.078-1.411.577-2.077,2.032-2.141.451-.019.879-.575,1.318-.884-.472-.4-.891-1.034-1.423-1.149-3.306-.716-4.656,1.181-4,5.511" transform="translate(764.379 2690.328)"/>
    <path id="Path_20" data-name="Path 20" d="M261.345,102.941c0,8.735.1,16.882-.054,25.023-.058,2.966.341,5.6,2.525,7.706,2.118,2.039,1.967,4.612,2.286,7.263.573,4.747-1.376,7.053-5.487,9.328-15.55,8.605-30.817,17.723-46.192,26.643a5.021,5.021,0,0,1-.89.228c-2.436-3.31-4.983-6.729-7.485-10.181-1.91-2.635-3.833-5.266-5.591-8a2.787,2.787,0,0,1-.112-2.469c5.551-8.451,11.2-16.834,16.846-25.224.121-.18.4-.252,1.022-.617,0,2.449,0,4.609,0,6.77,0,5.053.2,10.118-.071,15.156-.2,3.709,2.416,5.517,4.636,7.893v-4.095c0-10.284.038-20.568-.048-30.852a3.451,3.451,0,0,1,1.96-3.578c2.793-1.473,5.512-3.088,8.685-4.883a28.806,28.806,0,0,1,.323,2.932c.025,7.358.014,14.717.017,22.076,0,5.188.121,5.461,4.334,9.746v-2.839c0-10.727.032-21.455-.022-32.182-.009-1.785.407-2.9,2.2-3.716,2.515-1.144,4.83-2.725,7.7-4.392.1,1.408.219,2.324.221,3.241.016,6.826,0,13.653.011,20.479.008,5.831.016,5.831,4.292,11.608v-3.327c0-10.639.033-21.278-.024-31.917-.01-1.839.262-3.122,2.219-3.955a64.337,64.337,0,0,0,6.7-3.865" transform="translate(670.747 2642.161)" fill="#d2ad77"/>
    <path id="Path_21" data-name="Path 21" d="M204.138,23.727q5.612,5.14,11.223,10.281c2.128,1.957,4.129,4.067,6.371,5.881,4.67,3.776,5.163,9.629,7.43,14.592.123.269-.755,1.229-1.34,1.551C218.264,61.3,208.672,66.5,199.11,71.758a7.327,7.327,0,0,0-2.442,1.918q-10.538,14.656-20.952,29.4a14.207,14.207,0,0,0-.855,1.589l-.7-.543c1.174-9.161,2.349-18.322,3.591-28l3.815,4.39c.744-4.568,1.317-8.633,2.124-12.65a4.168,4.168,0,0,1,1.792-2.744c4.91-2.17,9.88-4.23,14.934-6.037,2.077-.743,2.923-1.629,2.9-3.924-.076-9.307.062-18.614.119-27.922.007-1.1,0-2.2,0-3.3l.695-.2" transform="translate(682.885 2679.226)" fill="#d2ad77"/>
    <path id="Path_22" data-name="Path 22" d="M174.482,86.667q-7.864,4.54-15.729,9.078c-8.7,5-17.605,9.687-26.016,15.136-2.973,1.926-4.938,5.567-7.042,8.646-6.694,9.8-13.263,19.68-19.814,29.573-1.16,1.752-2.3,2.02-4.366,1.444-10.713-2.991-21.494-5.738-32.243-8.6-8.448-2.252-16.879-4.568-25.326-6.828-9.469-2.533-18.948-5.029-28.418-7.557-1.181-.316-2.335-.729-3.467-1.086.9-4.744,2.472-5.693,6.613-4.568,13.974,3.795,27.974,7.5,41.956,11.262Q79.69,138.3,98.731,143.5a3.55,3.55,0,0,0,4.426-1.648c7.463-10.652,15.176-21.129,22.623-31.792,2.127-3.045,5.315-4.291,8.269-5.926,11.471-6.349,22.975-12.642,34.612-18.676,1.46-.757,3.78.15,5.7.285q.06.464.119.927" transform="translate(758.735 2650.482)" fill="#fff"/>
    <path id="Path_23" data-name="Path 23" d="M132.8,8.85c3.694,10.818,7.3,21.287,10.8,31.788a5.169,5.169,0,0,1-.267,2.761c-.491,1.774-1.662,3.525-1.6,5.253.137,3.987-2.062,6.532-4.547,9.057a8.464,8.464,0,0,1-.722.779c-6.2,4.868-7.276,11.848-8,19.039-.352,3.514-1.018,7-1.655,10.48a2.38,2.38,0,0,1-1.231,1.525,136.8,136.8,0,0,1-14.78,5.237c1.305-2.009,2.743-3.946,3.872-6.05a16.126,16.126,0,0,0,1.726-4.865c.467-2.788.387-5.673.929-8.44A14.568,14.568,0,0,1,119.47,71c2.405-3.981,4.893-7.911,7.373-11.9-.187-.254-.29-.518-.484-.64-3.2-2.013-4.05-4.775-3.521-8.528.716-5.074.337-10.331,1.325-15.332,1.135-5.743,3.213-11.3,4.958-16.919.783-2.52,1.736-4.99,2.657-7.466A7.166,7.166,0,0,1,132.8,8.85" transform="translate(712.536 2686.187)" fill="#d2ad77"/>
    <path id="Path_24" data-name="Path 24" d="M76.487,88.591l-4.381,5.6,17.008,17.649L78.3,129.2c-4.5-9.085-8.653-17.855-13.2-26.416-1.579-2.976-1.224-4.752,1.28-6.785,1.971-1.6,3.427-3.823,5.331-5.524a25.379,25.379,0,0,1,4.263-2.557l.5.673" transform="translate(734.36 2649.19)" fill="#d2ad77"/>
    <path id="Path_25" data-name="Path 25" d="M205.669,68.5c-7.39,2.044-14.991,2.151-20.775,7.451l-.449-.484c.819-2.748,1.482-5.554,2.49-8.232q3.149-8.382,6.666-16.622a3.024,3.024,0,0,1,4.991.092c2.412,5.749,4.634,11.577,7.077,17.8" transform="translate(678.075 2667.242)" fill="#d2ad77"/>
    <path id="Path_26" data-name="Path 26" d="M108.393,48.129c0-3.878-.167-7.766.059-11.632.151-2.593-.558-3.847-3.283-3.534a8.582,8.582,0,0,1-1.724-.35l12.64-11.071c-.633,9.783-2.774,18.556-7.692,26.586" transform="translate(715.976 2680.248)" fill="#d2ad77"/>
    <path id="Path_27" data-name="Path 27" d="M167.145,143.8c.575.464,1.57.867,1.648,1.4.266,1.821.443,3.887-1.743,4.736a6.612,6.612,0,0,1-3.082-.061c-.277-.039-.648-.637-.658-.987-.008-.315.439-.934.65-.919,2.683.19,2.735-1.571,2.466-3.605l.719-.567" transform="translate(687.964 2623.043)" fill="#d2ad77"/>
    <path id="Path_28" data-name="Path 28" d="M154.6,137.355c-.658-4.33.692-6.228,4-5.511.533.115.951.753,1.423,1.149-.439.31-.867.865-1.318.884-1.455.063-1.954.729-2.032,2.141-.086,1.551-.207,1.544-2.071,1.337" transform="translate(692.116 2628.706)" fill="#d2ad77"/>
  </g>
</svg>
