<svg xmlns="http://www.w3.org/2000/svg" width="176.764" height="151.365" viewBox="0 0 176.764 151.365">
  <g id="Group_16" data-name="Group 16" transform="translate(-513.979 -2633)">
    <path id="Path_15" data-name="Path 15" d="M63.356,85.823s2.537-63.071,51.653-75.576c0,0,43.5-6.162,69.959,36.972,0,0-39.692,23.561-39.873,25.736s-23.923,31.9-23.923,31.9-58-15.224-57.815-19.03" transform="translate(484.353 2628.351)" fill="#d2ad77"/>
    <path id="Path_16" data-name="Path 16" d="M141.673,17.63c3.911,4.084,7.891,8.107,11.7,12.281,1.831,2,3.284,4.35,5.049,6.422A5.676,5.676,0,0,0,160.988,38c4.4,1.313,8.8,2.717,13.293,3.607,2.34.464,2.489,1.58,2.484,3.448-.046,15.082,0,30.164-.044,45.246q-.035,11.568-.339,23.135a4.248,4.248,0,0,1-1.464,2.741c-2.968,2.491-6.353,3.448-9.988,1.559-5.11-2.656-8.727.777-12.619,2.954-5.224,2.922-10.325,6.063-15.557,8.969-1.664.924-2.672,1.936-2.32,3.922a6.211,6.211,0,0,1,.009,1.063c0,5.22-.8,6.635-5.77,8.093a8.41,8.41,0,0,1-5.327-.676c-3.823-1.724-6.977-1.022-10.336,1.277-3.771,2.58-8.011,4.473-11.8,7.033-2.916,1.97-5.545.5-8.109-.161-15.911-4.111-31.774-8.408-47.639-12.692C32.409,134,19.375,130.4,6.329,126.845,4.464,126.338,2.58,125.9,0,125.258l19.392-11.272c-3.594-5.4-7.08-10.655-10.591-15.9C6.159,94.143,3.424,90.258.887,86.247A3.183,3.183,0,0,1,.866,83.47C7.919,71.894,14.942,60.3,22.317,48.926c1.361-2.1,4.025-3.739,6.443-4.694,7.072-2.8,10.441-8.962,14.525-14.63C51.528,18.161,61.933,9.262,75.158,4.026,86.427-.437,98.065-1.031,109.87,1.46A64.158,64.158,0,0,1,133,11.557c.585.4.782,1.393,1.114,2.131a8.481,8.481,0,0,0,.852,2.058c1.786,2.088,3.647,4.116,5.551,6.1.973,1.012,1.527,1.924.443,3.2-1.332,1.569-1.975.05-2.727-.6-6.5-5.641-13.5-10.529-21.579-13.628-9.779-3.75-19.764-5.134-30.207-2.868-16.536,3.587-27.864,13.918-36.7,27.608A97.011,97.011,0,0,0,37.289,65.417c-1.174,4.8-1.6,9.771-2.5,14.642-.337,1.839.868,2.1,2.05,2.43q7.275,2.035,14.572,3.992Q62.678,89.5,73.956,92.464c5.293,1.4,10.57,2.876,15.9,4.1a3.456,3.456,0,0,0,2.67-1.384C99.539,85.7,106.623,76.271,113.3,66.56c2.516-3.659,6.283-5.006,9.732-6.955,9.658-5.458,19.427-10.724,29.229-15.921,1.56-.827,1.5-1.45.612-2.546-3.215-3.955-6.482-7.87-9.626-11.881a3.062,3.062,0,0,1-.641-2.54c2.08-3.833,2.147-3.792-.606-7.03-.382-.449-.706-.948-1.057-1.424l.73-.632m17.26,80.078c-2.8-3.176-4.68-5.79-4.5-9.792.333-7.345.1-14.717.086-22.078,0-1.014-.14-2.028-.234-3.3-2.712,1.589-4.985,3.126-7.434,4.29-1.92.913-2.407,2.175-2.391,4.18.085,10.73.043,21.461.032,32.192,0,.729-.1,1.458-.176,2.536-2.751-2.949-4.467-5.665-4.294-9.635.321-7.347.1-14.717.085-22.079,0-.932-.1-1.864-.18-3.126-3.123,1.732-5.849,3.3-8.631,4.765a3.939,3.939,0,0,0-2.3,4.013c.1,10.464.051,20.929.04,31.394,0,1.009-.1,2.019-.17,3.449-2.872-2.877-4.694-5.521-4.2-9.365a58.981,58.981,0,0,0,.059-7.442V84.539c-.676.358-1.084.437-1.247.68-5.444,8.094-10.8,16.251-16.343,24.274-1.2,1.74-.983,2.831.2,4.318,1.857,2.344,3.522,4.839,5.287,7.255,2.471,3.383,4.96,6.753,7.425,10.106,1.581-.891,2.888-1.613,4.182-2.359q22.87-13.185,45.726-26.4c.895-.518,2.363-1.317,2.341-1.941-.153-4.193,1.645-8.731-1.709-12.448a10.882,10.882,0,0,1-2.762-8.178c.23-7.442.078-14.9.067-22.347,0-.744-.1-1.489-.177-2.6-2.355,1.34-4.331,2.632-6.449,3.621-1.9.885-2.391,2.173-2.376,4.18.088,11.431.043,22.864.043,35m-153-11.129c5.335,1.449,10.268,2.814,15.215,4.128q19.728,5.242,39.464,10.454c12.041,3.207,24.093,6.38,36.085,9.76,1.865.525,2.51-.115,3.359-1.385,6.652-9.943,13.3-19.892,20.04-29.773,2.065-3.027,3.839-6.81,6.756-8.6,12.224-7.492,24.835-14.35,37.292-21.464,1.614-.922,3.149-1.983,5.2-3.285-2.921-.778-4.821-1.876-7.431-.381-9.171,5.253-18.529,10.179-27.837,15.191-6.948,3.741-13.6,7.45-18.048,14.673-5.657,9.194-12.416,17.711-18.742,26.491-.734,1.019-1.408,2.118-3.195,1.617-10.55-2.957-21.131-5.809-31.711-8.661Q44.341,90.48,26.277,85.68c-5.208-1.387-10.421-2.761-15.66-4.024a2.617,2.617,0,0,0-2.213.663,32.214,32.214,0,0,0-2.469,4.261" transform="translate(513.979 2633)"/>
    <path id="Path_17" data-name="Path 17" d="M252.333,145.93c0-12.141.046-23.573-.043-35-.015-2.008.478-3.3,2.376-4.181,2.118-.988,4.095-2.281,6.449-3.621.079,1.116.176,1.86.177,2.6.011,7.45.163,14.9-.067,22.346a10.884,10.884,0,0,0,2.762,8.178c3.354,3.718,1.556,8.255,1.708,12.448.023.624-1.446,1.423-2.34,1.941q-22.846,13.226-45.726,26.4c-1.294.746-2.6,1.468-4.182,2.358-2.465-3.353-4.954-6.723-7.425-10.106-1.765-2.417-3.43-4.912-5.287-7.255-1.178-1.487-1.4-2.579-.2-4.319,5.546-8.023,10.9-16.18,16.343-24.274.163-.243.571-.322,1.247-.68v13.169a58.971,58.971,0,0,1-.059,7.442c-.493,3.844,1.329,6.489,4.2,9.366.073-1.431.169-2.44.17-3.45.011-10.465.058-20.93-.04-31.394a3.939,3.939,0,0,1,2.3-4.013c2.781-1.464,5.507-3.033,8.631-4.765.076,1.262.178,2.194.18,3.126.013,7.361.236,14.732-.085,22.079-.174,3.97,1.542,6.686,4.294,9.635.077-1.079.175-1.807.176-2.536.01-10.731.052-21.462-.032-32.193-.016-2,.471-3.267,2.39-4.179,2.45-1.165,4.722-2.7,7.434-4.29.094,1.274.232,2.288.234,3.3.018,7.361.247,14.732-.086,22.078-.182,4,1.7,6.615,4.5,9.791" transform="translate(420.579 2584.778)" fill="#d2ad77"/>
    <path id="Path_18" data-name="Path 18" d="M11.15,126.361a32.214,32.214,0,0,1,2.469-4.261,2.617,2.617,0,0,1,2.213-.663c5.239,1.263,10.451,2.637,15.66,4.024q18.062,4.809,36.11,9.664c10.58,2.852,21.16,5.7,31.711,8.661,1.787.5,2.461-.6,3.195-1.617,6.325-8.78,13.085-17.3,18.742-26.491,4.444-7.223,11.1-10.932,18.048-14.673C148.6,96,157.963,91.069,167.134,85.816c2.61-1.495,4.51-.4,7.431.381-2.054,1.3-3.589,2.363-5.2,3.285-12.456,7.114-25.068,13.971-37.292,21.464-2.917,1.788-4.691,5.572-6.756,8.6-6.743,9.882-13.388,19.83-20.04,29.773-.85,1.27-1.494,1.911-3.359,1.385-11.992-3.381-24.044-6.553-36.085-9.76Q46.1,135.69,26.365,130.489c-4.947-1.314-9.88-2.679-15.215-4.128" transform="translate(508.765 2593.219)" fill="#fff"/>
  </g>
</svg>
